# xmcd CD database file
#
# Track frame offsets:
#	150
#	21240
#	38980
#	60057
#
# Disc length: 1036 seconds
#
# Revision: 0
# Processed by: cddbd v1.5.1PL0 Copyright (c) Steve Scherf et al.
# Submitted via: CDex 1.51
#
DISCID=26040a04
DTITLE=melody. - Believe me (English Version)
DYEAR=2004
DGENRE=JPop
TTITLE0=Believe me (English Version)
TTITLE1=So into You (English Version)
TTITLE2=Believe me (English Version) -Instrumental-
TTITLE3=So into You (English Version) -Instrumental-
EXTD=YEAR: 2004
EXTT0=
EXTT1=
EXTT2=
EXTT3=
PLAYORDER=
